<svg xmlns="http://www.w3.org/2000/svg" version="1.1" xmlns:xlink="http://www.w3.org/1999/xlink" xmlns:svgjs="http://svgjs.com/svgjs" width="172" height="72"><svg width="172" height="72" viewBox="0 0 172 72" fill="none" xmlns="http://www.w3.org/2000/svg">
<path d="M83.2247 29.7842C84.2537 29.7842 85.0879 30.6184 85.0879 31.6474C85.0879 31.9027 85.0354 32.1552 84.9338 32.3893L68.9194 69.2797C68.7921 69.5729 68.6127 69.8332 68.3947 70.0513C67.9345 70.5117 67.3023 70.7842 66.6262 70.7842H56.9886C55.9928 70.7842 55.0919 70.1932 54.6954 69.2797L38.681 32.3893C38.5794 32.1552 38.5269 31.9027 38.5269 31.6474C38.5269 31.1332 38.7359 30.6668 39.0724 30.3302M83.2247 29.7842L39.0724 30.3302C39.0724 30.3302 39.0724 30.3302 39.0724 30.3302M83.2247 29.7842H74.9335C74.2566 29.7842 73.6247 30.0572 73.165 30.5171C72.9339 30.7483 72.7461 31.0269 72.618 31.3415L63.1366 54.631C63.0529 54.8364 62.9383 55.0039 62.8049 55.1373C62.0916 55.8509 60.7807 55.6693 60.358 54.631L50.8766 31.3415C50.4932 30.3999 49.5778 29.7842 48.5611 29.7842H40.3901C39.8756 29.7842 39.409 29.9934 39.0724 30.3302V30.3302M83.2247 29.7842L39.0724 30.3302M37.3236 32.2842C37.3236 30.9035 36.2044 29.7842 34.8236 29.7842H3C2.30959 29.7842 1.68375 30.0647 1.23186 30.5168C0.780216 30.9686 0.5 31.5942 0.5 32.2842V68.2842C0.5 69.6649 1.61929 70.7842 3 70.7842H34.8236C35.5141 70.7842 36.1399 70.5037 36.5918 70.0516C37.0434 69.5997 37.3236 68.9742 37.3236 68.2842V62.9549C37.3236 61.5742 36.2044 60.4549 34.8237 60.4549H13.6389C12.8105 60.4549 12.1389 59.7833 12.1389 58.9549V56.8574C12.1389 56.4429 12.3063 56.0685 12.5785 55.7965C12.8504 55.5246 13.2247 55.3574 13.6389 55.3574H33.6215C34.3119 55.3574 34.9377 55.0768 35.3896 54.6247C35.8413 54.1729 36.1215 53.5474 36.1215 52.8573V47.65C36.1215 46.2693 35.0022 45.15 33.6215 45.15H13.6389C12.8105 45.15 12.1389 44.4785 12.1389 43.65V41.6134C12.1389 41.199 12.3063 40.8246 12.5785 40.5526C12.8504 40.2807 13.2247 40.1134 13.6389 40.1134H34.8236C35.5141 40.1134 36.1399 39.8329 36.5918 39.3808C37.0434 38.929 37.3236 38.3035 37.3236 37.6134V32.2842ZM140.767 70.0523C141.219 69.6004 141.5 68.9746 141.5 68.2842V32.2842C141.5 30.9035 140.381 29.7842 139 29.7842H127.883C127.207 29.7842 126.575 30.0566 126.115 30.5171C125.898 30.7338 125.719 30.9922 125.592 31.2833L115.738 53.8367C115.656 54.0258 115.546 54.1817 115.421 54.3074C114.717 55.0112 113.435 54.8463 112.991 53.8417L103.034 31.275C102.635 30.3689 101.738 29.7842 100.747 29.7842H89.6853C88.9949 29.7842 88.369 30.0647 87.9171 30.5168C87.4655 30.9686 87.1853 31.5942 87.1853 32.2842V68.2842C87.1853 69.6649 88.3045 70.7842 89.6853 70.7842H96.2039C96.8944 70.7842 97.5202 70.5037 97.9721 70.0516C98.4237 69.5997 98.7039 68.9742 98.7039 68.2842V54.9712C98.7039 54.5123 98.8722 54.1627 99.1182 53.9167C99.8169 53.2178 101.113 53.3064 101.578 54.3702L108.101 69.2859C108.499 70.196 109.398 70.7842 110.392 70.7842H118.294C118.97 70.7842 119.602 70.5118 120.063 70.0513C120.279 69.8349 120.457 69.5769 120.584 69.2864L127.167 54.2425C127.256 54.0401 127.369 53.879 127.495 53.7526C127.914 53.3337 128.548 53.2387 129.096 53.4482C129.628 53.6518 130.041 54.1291 130.041 54.8438V68.2842C130.041 69.6649 131.161 70.7842 132.541 70.7842H139C139.69 70.7842 140.316 70.504 140.767 70.0523Z" fill="#242424" stroke="#242424"></path>
<path d="M168.291 1.71106C167.517 1.37052 166.77 1.80712 166.345 2.23223L139.757 28.82C139.371 29.206 139.377 29.7469 139.468 30.1366C139.564 30.542 139.785 30.9484 140.061 31.2236C140.336 31.4989 140.742 31.7202 141.148 31.8159C141.537 31.9078 142.078 31.9131 142.464 31.5271L169.052 4.93934C169.477 4.51423 169.914 3.76686 169.573 2.9934C169.322 2.42172 168.863 1.96275 168.291 1.71106Z" fill="#242424" stroke="#242424" stroke-linejoin="round"></path>
<path d="M162.458 1.5H156.997C156.334 1.5 155.699 1.76339 155.23 2.23223L130.945 26.5165C129.371 28.0914 130.486 30.7843 132.713 30.7843H138.173C138.836 30.7843 139.472 30.5209 139.941 30.052L164.225 5.76777C165.8 4.19285 164.685 1.5 162.458 1.5Z" fill="#242424" stroke="#242424" stroke-linejoin="round"></path>
<path d="M154.399 2.23289L126.116 30.5163L126.116 30.5164C125.921 30.7116 125.921 31.0282 126.116 31.2235C126.311 31.4187 126.628 31.4188 126.823 31.2236C126.823 31.2236 126.823 31.2235 126.823 31.2235C126.823 31.2234 126.823 31.2233 126.823 31.2232C126.955 31.0918 127.11 30.9859 127.28 30.911C127.352 30.8793 127.439 30.8434 127.531 30.8051C127.695 30.7372 127.877 30.6616 128.032 30.5873C128.296 30.4604 128.579 30.296 128.823 30.052L155.41 3.46488C155.717 3.15796 155.871 2.6814 155.645 2.29094C155.523 2.08041 155.296 1.93067 155.018 1.93783C154.764 1.94436 154.554 2.07846 154.399 2.23281C154.399 2.23284 154.399 2.23286 154.399 2.23289Z" fill="#242424" stroke="#242424" stroke-linejoin="round"></path>
<path d="M155.106 2.23234C155.302 2.42756 155.302 2.74411 155.107 2.93941C155.107 2.93943 155.106 2.93946 155.106 2.93949C155.106 2.93978 155.106 2.94008 155.106 2.94037M155.106 2.23234L154.106 2.58621C154.106 2.58621 154.106 2.58622 154.106 2.58622C154.075 2.63012 154.048 2.67134 154.021 2.71021C153.907 2.8789 153.823 3.00348 153.714 3.11249L126.225 30.602C126.247 30.5797 126.298 30.5383 126.383 30.518C126.462 30.4988 126.607 30.4942 126.742 30.5965L126.481 30.858L126.469 30.8702C126.363 30.9762 126.46 31.0591 126.566 30.9673L126.822 31.2238L126.822 31.2237L126.566 30.9673C126.57 30.9637 126.574 30.9597 126.578 30.9555L126.839 30.6951C126.915 30.8009 126.933 30.9256 126.918 31.0244C126.902 31.1216 126.859 31.1829 126.834 31.2111C126.829 31.2164 126.825 31.2205 126.822 31.2234L126.834 31.2116L154.324 3.72206L154.909 3.13682M155.106 2.23234C154.911 2.03712 154.595 2.03714 154.399 2.23238L154.399 2.23247L126.115 30.5167L126.115 30.5167C126.041 30.5906 125.956 30.7074 125.93 30.8666C125.902 31.0405 125.955 31.2512 126.134 31.3902C126.299 31.5182 126.487 31.5213 126.616 31.4904C126.749 31.4585 126.855 31.3864 126.932 31.3091L154.421 3.81959C154.605 3.63555 154.754 3.4144 154.869 3.24311C154.89 3.21055 154.911 3.1798 154.93 3.15145L154.909 3.13682M155.106 2.23234L154.909 3.13682M155.106 2.94037L154.909 3.13682M155.106 2.94037C155.041 3.00483 154.983 3.0754 154.93 3.15145L154.909 3.13682M155.106 2.94037L154.909 3.13682" fill="#242424" stroke="#242424" stroke-linejoin="round"></path>
<path d="M169.784 39.1716V8.82843C169.784 6.60117 167.091 5.48575 165.517 7.06066L141.232 31.3449C140.763 31.8138 140.5 32.4497 140.5 33.1127V63.4558C140.5 65.6831 143.193 66.7985 144.768 65.2236L169.052 40.9393C169.521 40.4705 169.784 39.8346 169.784 39.1716Z" fill="#242424" stroke="#242424" stroke-linejoin="round"></path>
<path d="M145.091 25.6066L150.556 13.0993C151.662 10.5679 148.45 8.37725 146.497 10.3306L125.965 30.8627C125.744 31.0835 125.567 31.3435 125.442 31.6296L119.977 44.1368C118.871 46.6683 122.082 48.8589 124.036 46.9055L144.568 26.3734C144.789 26.1527 144.966 25.8926 145.091 25.6066Z" fill="#242424" stroke="#242424" stroke-linejoin="round"></path>
<path d="M155.073 24.761L126.79 53.0443C126.79 53.0446 126.789 53.0448 126.789 53.045L126.789 53.045C126.594 53.2403 126.594 53.5569 126.789 53.7521C126.984 53.9474 127.301 53.9474 127.496 53.7522C127.699 53.5496 128.078 53.3807 128.651 53.2473C129.211 53.117 129.869 53.0384 130.563 52.9561L130.58 52.9541C131.255 52.874 131.965 52.7899 132.583 52.6458C133.194 52.5038 133.808 52.2846 134.219 51.874L158.594 27.4986C159.019 27.0743 159.457 26.3317 159.13 25.557C158.464 23.9749 156.297 23.5368 155.073 24.761C155.073 24.761 155.073 24.761 155.073 24.761Z" fill="#242424" stroke="#242424" stroke-linejoin="round"></path>
<path d="M155.78 25.4697C155.781 25.4694 155.781 25.4691 155.781 25.4688C155.781 25.4688 155.781 25.4688 155.781 25.4687C155.977 25.2735 155.977 24.9569 155.781 24.7617C155.586 24.5664 155.269 24.5664 155.074 24.7617L155.074 24.7617M155.78 25.4697L155.566 25.6845L154.977 26.2733L127.51 53.7397L127.497 53.7529C127.5 53.7496 127.505 53.745 127.51 53.7391C127.535 53.7095 127.579 53.6468 127.592 53.5484C127.606 53.4508 127.586 53.3348 127.517 53.236L127.262 53.4913C127.257 53.496 127.253 53.5003 127.248 53.5042L127.497 53.753L127.497 53.7531L127.248 53.5043C127.138 53.5988 127.033 53.5098 127.143 53.3995L127.157 53.3861L127.414 53.1294C127.285 53.035 127.149 53.0358 127.069 53.0539C126.983 53.0732 126.932 53.1146 126.909 53.1378L154.375 25.6715C154.493 25.553 154.587 25.411 154.714 25.2173C154.728 25.196 154.742 25.1741 154.757 25.1516C154.852 25.0078 154.958 24.8777 155.074 24.7617M155.78 25.4697C155.713 25.5372 155.65 25.6143 155.592 25.7019C155.578 25.723 155.564 25.745 155.549 25.7679C155.43 25.9495 155.278 26.1822 155.082 26.3786L127.616 53.8449C127.488 53.9721 127.14 54.1823 126.811 53.927C126.637 53.7929 126.577 53.5879 126.602 53.4087C126.625 53.2444 126.713 53.1231 126.79 53.046L126.79 53.046L155.074 24.7617M155.78 25.4697L155.074 24.7617" fill="#242424" stroke="#242424" stroke-linejoin="round"></path>
<path d="M140.768 70.0517C140.768 70.0515 140.769 70.0514 140.769 70.0512L169.052 41.7681C169.052 41.7681 169.052 41.7681 169.052 41.7681C169.206 41.6138 169.34 41.4031 169.347 41.1493C169.354 40.8712 169.204 40.644 168.994 40.5224C168.603 40.2968 168.127 40.4507 167.82 40.7576L141.232 67.3449C140.988 67.5891 140.824 67.8719 140.697 68.1365C140.624 68.2902 140.548 68.472 140.481 68.6352C140.442 68.7284 140.406 68.8155 140.374 68.8879L140.474 68.9319H140.474L140.374 68.8879C140.299 69.059 140.192 69.2137 140.061 69.3447C139.866 69.54 139.866 69.8566 140.061 70.0518C140.256 70.247 140.573 70.247 140.768 70.0517L140.768 70.0517Z" fill="#242424" stroke="#242424" stroke-linejoin="round"></path>
<path d="M130.166 1.77158C130.124 1.75037 130.082 1.73031 130.039 1.71144C129.265 1.37131 128.518 1.80676 128.093 2.23223L101.412 28.9127C101.045 29.2798 101.048 29.7878 101.139 30.1527C101.232 30.529 101.45 30.906 101.735 31.1547C101.966 31.3561 102.268 31.4957 102.58 31.531C102.896 31.5668 103.265 31.497 103.547 31.2147L130.247 4.51468C130.61 4.15199 130.868 3.65301 130.909 3.15188C130.953 2.62611 130.75 2.06887 130.166 1.77158Z" fill="#242424" stroke="#242424" stroke-linejoin="round"></path>
<path d="M169.052 41.0605C168.857 40.8653 168.54 40.8652 168.345 41.0604C168.214 41.1914 168.059 41.298 167.888 41.3733C167.816 41.4051 167.728 41.4413 167.635 41.48C167.472 41.5477 167.29 41.6231 167.137 41.6967C166.872 41.8234 166.589 41.9877 166.345 42.2318L139.757 68.8197C139.45 69.1266 139.296 69.6029 139.522 69.9933C139.643 70.2037 139.871 70.3536 140.148 70.3466C140.402 70.3403 140.613 70.2062 140.767 70.052L140.767 70.0519L169.051 41.7682C169.051 41.768 169.051 41.7679 169.052 41.7677L169.052 41.7676C169.247 41.5724 169.247 41.2558 169.052 41.0605Z" fill="#242424" stroke="#242424" stroke-linejoin="round"></path>
<path d="M159.327 39.1715V31.388C159.327 29.1607 156.634 28.0453 155.059 29.6202L130.775 53.9045C130.306 54.3733 130.043 55.0092 130.043 55.6723V63.4558C130.043 65.683 132.736 66.7984 134.311 65.2235L158.595 40.9393C159.064 40.4704 159.327 39.8345 159.327 39.1715Z" fill="#242424" stroke="#242424" stroke-linejoin="round"></path>
<path d="M162.457 41.5H161.656C160.993 41.5 160.357 41.7634 159.888 42.2322L135.604 66.5165C134.029 68.0914 135.144 70.7843 137.371 70.7843H138.173C138.836 70.7843 139.472 70.5209 139.941 70.052L164.225 45.7678C165.8 44.1929 164.685 41.5 162.457 41.5Z" fill="#242424" stroke="#242424" stroke-linejoin="round"></path>
<path d="M124.203 1.5H118.798C118.135 1.5 117.499 1.76339 117.03 2.23223L92.7462 26.5165C91.1713 28.0914 92.2867 30.7843 94.514 30.7843H99.9191C100.582 30.7843 101.218 30.5209 101.687 30.052L125.971 5.76777C127.546 4.19286 126.431 1.5 124.203 1.5Z" fill="#242424" stroke="#242424" stroke-linejoin="round"></path>
<path d="M140.724 24.3041L132.499 5.66251C131.789 4.05473 129.686 3.66132 128.444 4.90393L103.193 30.1546C102.463 30.8843 102.257 31.9874 102.674 32.9316L110.899 51.5732C111.608 53.181 113.711 53.5744 114.954 52.3318L140.204 27.0811C140.934 26.3514 141.14 25.2483 140.724 24.3041Z" fill="#242424" stroke="#242424" stroke-linejoin="round"></path>
<path d="M157.363 40.7572L130.775 67.3449C130.35 67.77 129.913 68.5174 130.254 69.2909C130.506 69.8626 130.965 70.3215 131.536 70.5732C132.31 70.9138 133.057 70.4771 133.482 70.052L160.07 43.4643C160.456 43.0783 160.451 42.5374 160.359 42.1477C160.263 41.7422 160.042 41.3359 159.767 41.0607C159.491 40.7854 159.085 40.564 158.68 40.4684C158.29 40.3765 157.749 40.3711 157.363 40.7572Z" fill="#242424" stroke="#242424" stroke-linejoin="round"></path>
<path d="M149.021 40.6565L151.202 35.6706C152.31 33.1391 149.098 30.9467 147.144 32.9007L126.623 53.4217C126.403 53.6421 126.225 53.9018 126.1 54.1873L123.919 59.1731C122.811 61.7047 126.023 63.897 127.977 61.9431L148.498 41.422C148.718 41.2016 148.896 40.942 149.021 40.6565Z" fill="#242424" stroke="#242424" stroke-linejoin="round"></path>
<path d="M144.413 26.7305L144.413 26.7304C144.489 26.655 144.575 26.5358 144.599 26.3739C144.626 26.1971 144.569 25.9898 144.393 25.8538C144.061 25.5964 143.714 25.814 143.592 25.9352L116.111 53.4164C115.922 53.606 115.772 53.8322 115.655 54.0079C115.637 54.0364 115.619 54.0636 115.601 54.0891C115.547 54.1699 115.487 54.2427 115.422 54.3076C115.422 54.3077 115.422 54.3076 115.422 54.3077C115.227 54.503 115.227 54.8195 115.422 55.0148C115.617 55.21 115.934 55.21 116.129 55.0147L116.129 55.0147L144.413 26.7305Z" fill="#242424" stroke="#242424" stroke-linejoin="round"></path>
<path d="M144.413 26.024C144.218 25.8288 143.901 25.8287 143.706 26.0239C143.706 26.024 143.706 26.024 143.706 26.024C143.706 26.0242 143.706 26.0244 143.705 26.0246C143.534 26.196 143.326 26.3166 143.101 26.3852C142.819 26.4716 142.476 26.5177 142.079 26.5487C141.882 26.5641 141.68 26.5753 141.47 26.5869L141.469 26.5869C141.261 26.5984 141.045 26.6103 140.831 26.627C140.009 26.691 139.042 26.8299 138.401 27.4713L113.15 52.722C112.788 53.0846 112.528 53.5846 112.485 54.086C112.44 54.6119 112.641 55.1729 113.23 55.4692C114.161 55.9379 115.352 55.7927 116.129 55.015C116.129 55.0149 116.129 55.0149 116.129 55.0149L144.413 26.7312L144.413 26.7311C144.608 26.5359 144.608 26.2193 144.413 26.024Z" fill="#242424" stroke="#242424" stroke-linejoin="round"></path>
<path d="M116.202 2.2326L87.9186 30.5161L87.9185 30.5162C87.7233 30.7115 87.7233 31.028 87.9185 31.2233C88.1137 31.4185 88.4303 31.4186 88.6256 31.2234C88.6256 31.2234 88.6256 31.2233 88.6256 31.2233C88.6258 31.2231 88.626 31.2229 88.6262 31.2227C88.7571 31.0921 88.9116 30.9857 89.0824 30.9105C89.1547 30.8787 89.2419 30.8425 89.3351 30.8039C89.4983 30.7362 89.6801 30.6607 89.8337 30.5872C90.0983 30.4604 90.3812 30.2962 90.6253 30.052L117.213 3.4647C117.52 3.15779 117.673 2.68132 117.448 2.29091C117.326 2.08038 117.099 1.93051 116.821 1.9376C116.567 1.94408 116.356 2.07821 116.202 2.23253C116.202 2.23255 116.202 2.23258 116.202 2.2326Z" fill="#242424" stroke="#242424" stroke-linejoin="round"></path>
<path d="M116.908 2.94023C116.908 2.93998 116.909 2.93974 116.909 2.93949C116.909 2.93947 116.909 2.93944 116.909 2.93942C117.104 2.74413 117.104 2.42757 116.909 2.23235C116.714 2.03712 116.397 2.03714 116.202 2.23238L116.202 2.23246M116.908 2.94023L116.496 3.35225L115.721 4.12753C115.628 4.29421 115.52 4.45007 115.384 4.58564L88.7961 31.1736C88.3863 31.5834 87.8613 31.2801 88.271 30.8702L115.316 3.82542C115.334 3.79023 115.353 3.75366 115.371 3.71566C115.437 3.57641 115.489 3.4514 115.545 3.31458C115.585 3.21673 115.628 3.11283 115.681 2.99336C115.807 2.70736 115.984 2.44984 116.202 2.23246M116.908 2.94023C116.778 3.07104 116.671 3.22551 116.596 3.39626C116.564 3.46859 116.528 3.55572 116.489 3.64894C116.422 3.81211 116.346 3.99393 116.273 4.14759C116.146 4.41219 115.982 4.69508 115.738 4.93919L89.1497 31.5271C88.8428 31.834 88.3665 31.9877 87.9761 31.7622C87.7657 31.6406 87.6158 31.4136 87.6227 31.1356C87.6291 30.8818 87.7631 30.6711 87.9174 30.5167L87.9175 30.5167L116.202 2.23246M116.908 2.94023L116.202 2.23246" fill="#242424" stroke="#242424" stroke-linejoin="round"></path>
<path d="M113.038 2.29898C112.912 2.11769 112.754 1.96001 112.573 1.8337C112.197 1.57151 111.779 1.57318 111.431 1.68415C111.094 1.7916 110.795 2.00629 110.57 2.23223L83.6282 29.1736C83.3073 29.4944 83.3212 29.9328 83.3889 30.2201C83.4604 30.5232 83.625 30.8271 83.835 31.0371C84.045 31.2471 84.3489 31.4117 84.652 31.4832C84.9393 31.5509 85.3777 31.5647 85.6985 31.2439L112.64 4.30255C112.866 4.07661 113.081 3.77827 113.188 3.44141C113.299 3.09354 113.301 2.67528 113.038 2.29898Z" fill="#242424" stroke="#242424" stroke-linejoin="round"></path>
<path d="M112.154 3.37569L112.154 3.37569L84.2646 31.2652L84.6181 31.6187L84.2646 31.2652C84.1501 31.3796 84.0933 31.5286 84.0889 31.6734C84.0792 31.9988 84.3148 32.1922 84.4435 32.2634C84.5605 32.3282 84.9142 32.4599 85.1961 32.178L113.086 4.2885C113.147 4.22678 113.203 4.14834 113.241 4.05366L112.777 3.86857L113.241 4.05364C113.296 3.91573 113.313 3.7499 113.254 3.58533C113.196 3.42187 113.078 3.30186 112.942 3.23411C112.67 3.09843 112.357 3.17324 112.154 3.37569Z" fill="#242424" stroke="#242424" stroke-linejoin="round"></path>
<path d="M119.355 70.0515C119.16 69.8563 119.16 69.5397 119.355 69.3444C119.355 69.3444 119.355 69.3444 119.355 69.3444C119.356 69.3441 119.356 69.3439 119.356 69.3437M119.355 70.0515L119.709 69.6979L120.063 70.0514M119.355 70.0515C119.551 70.2467 119.867 70.2467 120.063 70.0515L120.063 70.0514M119.355 70.0515L120.063 70.0514M119.356 69.3437L119.552 69.1473L120.137 68.5629L147.628 41.0722L147.64 41.0602M119.356 69.3437C119.42 69.2793 119.479 69.2087 119.531 69.1327C119.551 69.1044 119.571 69.0737 119.593 69.0413C119.708 68.8702 119.856 68.6495 120.04 68.4657L147.53 40.975C147.608 40.8977 147.713 40.8257 147.846 40.7939C147.975 40.7629 148.163 40.766 148.328 40.894C148.507 41.0331 148.559 41.2438 148.532 41.4175C148.506 41.5766 148.421 41.6933 148.347 41.7671L148.347 41.7672L120.063 70.0514M119.356 69.3437L120.063 70.0514M147.64 41.0602C147.637 41.0632 147.633 41.0673 147.628 41.0727C147.603 41.1009 147.56 41.1623 147.544 41.2596C147.528 41.3584 147.547 41.4833 147.623 41.5893L147.884 41.3285C147.888 41.3244 147.892 41.3205 147.896 41.3168L147.64 41.0602ZM147.64 41.0602L147.64 41.0601L147.896 41.3168C148.002 41.2252 148.099 41.308 147.993 41.4136L147.981 41.4258L147.719 41.6875C147.855 41.79 148 41.7854 148.079 41.7662C148.164 41.7459 148.215 41.7044 148.237 41.6821L120.747 69.1728C120.638 69.2816 120.554 69.406 120.44 69.5744C120.414 69.6132 120.386 69.6544 120.356 69.6982C120.269 69.8255 120.17 69.9436 120.063 70.0514" fill="#242424" stroke="#242424" stroke-linejoin="round"></path>
<path d="M148.347 41.0612C148.152 40.8659 147.835 40.8659 147.64 41.0611C147.64 41.0611 147.64 41.0611 147.64 41.0612C147.64 41.0613 147.64 41.0615 147.639 41.0616C147.508 41.193 147.353 41.2989 147.183 41.3737C147.111 41.4054 147.024 41.4413 146.932 41.4796C146.768 41.5475 146.586 41.6231 146.431 41.6974C146.167 41.8242 145.884 41.9887 145.64 42.2327L119.053 68.8198C118.746 69.1267 118.592 69.6033 118.818 69.9938C118.939 70.2043 119.167 70.354 119.445 70.3469C119.698 70.3403 119.909 70.2062 120.063 70.0519C120.063 70.0519 120.063 70.0518 120.063 70.0518L148.347 41.7684L148.347 41.7683C148.542 41.573 148.542 41.2565 148.347 41.0612Z" fill="#242424" stroke="#242424" stroke-linejoin="round"></path>
<path d="M106.681 1.5H104.046C103.383 1.5 102.747 1.76339 102.279 2.23223L77.9943 26.5165C76.4193 28.0914 77.5348 30.7843 79.762 30.7843H82.3963C83.0594 30.7843 83.6953 30.5209 84.1641 30.052L108.448 5.76777C110.023 4.19286 108.908 1.5 106.681 1.5Z" fill="#242424" stroke="#242424" stroke-linejoin="round"></path>
<path d="M126.696 24.9256L98.4128 53.2091C98.4127 53.2092 98.4126 53.2094 98.4124 53.2095L98.4124 53.2095C98.2171 53.4048 98.2171 53.7214 98.4124 53.9166C98.6076 54.1119 98.9242 54.1119 99.1195 53.9167C99.294 53.7422 99.5144 53.6133 99.7564 53.5395C100.04 53.4531 100.383 53.407 100.781 53.376C100.977 53.3606 101.18 53.3495 101.39 53.3378L101.391 53.3378C101.6 53.3262 101.816 53.3142 102.031 53.2975C102.854 53.2332 103.821 53.0935 104.463 52.4513L129.71 27.2045C130.071 26.8433 130.332 26.3444 130.378 25.8438C130.427 25.3195 130.233 24.7552 129.646 24.4541C128.676 23.9564 127.454 24.1674 126.696 24.9256Z" fill="#242424" stroke="#242424" stroke-linejoin="round"></path>
<path d="M127.404 25.6328C127.599 25.4375 127.599 25.121 127.404 24.9257C127.208 24.7305 126.892 24.7305 126.696 24.9257L126.696 24.9258L98.4122 53.21L98.4122 53.2101C98.2566 53.3657 98.1222 53.5804 98.1217 53.8391C98.1212 54.1191 98.2783 54.3394 98.4836 54.4564C98.869 54.6759 99.3463 54.5375 99.6591 54.2247L126.257 27.6267C126.502 27.3818 126.666 27.0982 126.791 26.8317C126.869 26.6661 126.944 26.4774 127.012 26.3083C127.046 26.2232 127.078 26.1432 127.107 26.0735C127.179 25.9036 127.28 25.7563 127.404 25.6329C127.404 25.6328 127.404 25.6329 127.404 25.6328Z" fill="#242424" stroke="#242424" stroke-linejoin="round"></path>
<path d="M141.751 41.5H139.505C138.842 41.5 138.206 41.7634 137.738 42.2322L113.453 66.5165C111.878 68.0914 112.994 70.7843 115.221 70.7843H117.467C118.13 70.7843 118.766 70.5209 119.234 70.052L143.519 45.7678C145.094 44.1929 143.978 41.5 141.751 41.5Z" fill="#242424" stroke="#242424" stroke-linejoin="round"></path>
<path d="M136.755 39.3506L131.954 28.3707C131.248 26.7574 129.141 26.3595 127.895 27.6046L102.649 52.8514C101.921 53.579 101.714 54.6781 102.126 55.6208L106.927 66.6007C107.633 68.214 109.741 68.6119 110.986 67.3668L136.233 42.12C136.96 41.3924 137.168 40.2933 136.755 39.3506Z" fill="#242424" stroke="#242424" stroke-linejoin="round"></path>
<path d="M102.069 1.93784C101.815 1.94437 101.604 2.07852 101.45 2.23289L73.1673 30.5158C73.1671 30.516 73.1669 30.5162 73.1667 30.5164L73.1666 30.5165C72.9713 30.7117 72.9713 31.0283 73.1666 31.2235C73.3618 31.4188 73.6783 31.4189 73.8736 31.2237C74.0053 31.092 74.1605 30.986 74.3308 30.911C74.403 30.8793 74.4894 30.8434 74.5818 30.805C74.7454 30.7372 74.9277 30.6615 75.0824 30.5873C75.347 30.4604 75.6298 30.296 75.8738 30.052L102.461 3.4649C102.768 3.15798 102.922 2.68142 102.696 2.29095C102.574 2.08042 102.347 1.93068 102.069 1.93784Z" fill="#242424" stroke="#242424" stroke-linejoin="round"></path>
<path d="M102.157 2.23235C102.353 2.42757 102.353 2.74412 102.157 2.93941C102.157 2.93944 102.157 2.93947 102.157 2.93949L102.157 2.23235ZM102.157 2.23235C101.962 2.03712 101.645 2.03714 101.45 2.23238L101.45 2.23246L73.166 30.5167L73.1659 30.5167C73.0882 30.5945 72.9999 30.716 72.975 30.8801C72.9477 31.0599 73.0058 31.2712 73.1858 31.4087C73.5224 31.6659 73.8741 31.4447 73.9989 31.3199L101.434 3.88477C101.63 3.68838 101.786 3.45013 101.906 3.26568C101.929 3.23045 101.951 3.19718 101.971 3.16655C102.026 3.08473 102.088 3.00905 102.157 2.94029L102.157 2.23235Z" fill="#242424" stroke="#242424" stroke-linejoin="round"></path>
<path d="M109.247 70.5066L109.476 70.0623L109.247 70.5066C109.293 70.5302 109.339 70.5525 109.387 70.5733C110.16 70.9134 110.907 70.4779 111.332 70.0525L138.011 43.3735C138.379 43.0061 138.376 42.4976 138.285 42.1323C138.192 41.7556 137.974 41.378 137.689 41.1289C137.458 40.9268 137.155 40.7865 136.843 40.7507C136.526 40.7144 136.156 40.784 135.872 41.0671L109.172 67.7674C108.811 68.129 108.553 68.6261 108.51 69.1261C108.466 69.6504 108.666 70.2069 109.247 70.5066Z" fill="#242424" stroke="#242424" stroke-linejoin="round"></path>
<path d="M116.47 39.1716V8.82843C116.47 6.60116 113.777 5.48575 112.202 7.06066L87.9178 31.3449C87.4489 31.8138 87.1855 32.4497 87.1855 33.1127V63.4558C87.1855 65.6831 89.8784 66.7985 91.4533 65.2236L115.738 40.9393C116.206 40.4705 116.47 39.8346 116.47 39.1716Z" fill="#242424" stroke="#242424" stroke-linejoin="round"></path>
<path d="M126.989 39.172V31.5159C126.989 29.2887 124.296 28.1732 122.722 29.7482L98.4373 54.0324C97.9685 54.5013 97.7051 55.1372 97.7051 55.8002V63.4563C97.7051 65.6836 100.398 66.799 101.973 65.2241L126.257 40.9398C126.726 40.471 126.989 39.8351 126.989 39.172Z" fill="#242424" stroke="#242424" stroke-linejoin="round"></path>
<path d="M97.2656 70.0518C97.0704 69.8566 97.0703 69.54 97.2655 69.3447C97.2655 69.3447 97.2656 69.3447 97.2656 69.3446C97.2657 69.3445 97.2659 69.3444 97.266 69.3442M97.2656 70.0518L97.6191 69.6982L97.9728 70.0517M97.2656 70.0518C97.4609 70.247 97.7774 70.247 97.9727 70.0517L97.9728 70.0517M97.2656 70.0518L97.9728 70.0517M97.266 69.3442L97.6784 68.9319L98.4536 68.1566C98.5466 67.9899 98.6548 67.8341 98.7904 67.6985L125.378 41.1106C125.788 40.7007 126.313 41.004 125.903 41.4139L98.8586 68.4587C98.8401 68.4939 98.8218 68.5305 98.8037 68.5685C98.737 68.7077 98.6855 68.8327 98.6292 68.9695C98.589 69.0674 98.5462 69.1713 98.4936 69.2908C98.3677 69.5768 98.1901 69.8343 97.9728 70.0517M97.266 69.3442C97.3967 69.2133 97.5032 69.0587 97.5784 68.8879C97.6102 68.8155 97.6464 68.7284 97.685 68.6352C97.7527 68.472 97.8282 68.2902 97.9017 68.1365C98.0285 67.8719 98.1927 67.589 98.4369 67.3449L125.025 40.757C125.332 40.4502 125.808 40.2964 126.198 40.5219C126.409 40.6435 126.559 40.8705 126.552 41.1485C126.545 41.4024 126.411 41.6131 126.257 41.7674L126.257 41.7675L97.9728 70.0517M97.266 69.3442L97.9728 70.0517" fill="#242424" stroke="#242424" stroke-linejoin="round"></path>
<path d="M125.55 41.061C125.745 40.8658 126.062 40.8659 126.257 41.0611C126.452 41.2564 126.452 41.573 126.257 41.7682L126.257 41.7683L97.9732 70.0518C97.9732 70.0518 97.9732 70.0519 97.9731 70.0519C97.8189 70.2062 97.6082 70.3403 97.3543 70.3468C97.0763 70.3539 96.8491 70.204 96.7275 69.9935C96.5019 69.6031 96.6558 69.1266 96.9627 68.8197L123.55 42.2324C123.794 41.9883 124.077 41.824 124.342 41.6973C124.495 41.6237 124.677 41.5482 124.84 41.4806C124.933 41.4419 125.021 41.4057 125.093 41.3739L125.137 41.4739V41.4739L125.093 41.3739C125.264 41.2987 125.418 41.1924 125.549 41.0619L125.55 41.061ZM125.55 41.061C125.55 41.061 125.55 41.0611 125.55 41.0611L125.55 41.061Z" fill="#242424" stroke="#242424" stroke-linejoin="round"></path>
<path d="M97.3553 40.6468L109.03 13.7528C110.129 11.2218 106.92 9.03849 104.969 10.9895L84.3907 31.568C84.1685 31.7902 83.9903 32.0521 83.8652 32.3403L72.1903 59.2343C71.0916 61.7653 74.3003 63.9486 76.2513 61.9976L96.8298 41.4191C97.052 41.197 97.2302 40.935 97.3553 40.6468Z" fill="#242424" stroke="#242424" stroke-linejoin="round"></path>
<path d="M92.4994 26.3498L98.0965 12.6015C99.1248 10.0757 95.9416 7.96271 94.0132 9.89109L73.0133 30.891C72.7775 31.1268 72.5913 31.4073 72.4656 31.7161L66.8685 45.4644C65.8402 47.9902 69.0233 50.1032 70.9517 48.1748L91.9517 27.1749C92.1874 26.9391 92.3736 26.6586 92.4994 26.3498Z" fill="#242424" stroke="#242424" stroke-linejoin="round"></path>
<path d="M119.66 41.5H118.798C118.135 41.5 117.499 41.7634 117.03 42.2322L92.7462 66.5165C91.1713 68.0914 92.2867 70.7843 94.514 70.7843H95.3758C96.0389 70.7843 96.6747 70.5209 97.1436 70.052L121.428 45.7678C123.003 44.1929 121.887 41.5 119.66 41.5Z" fill="#242424" stroke="#242424" stroke-linejoin="round"></path>
<path d="M114.505 40.7572L87.9178 67.3449C87.4927 67.77 87.0561 68.5174 87.3966 69.2909C87.6483 69.8626 88.1073 70.3215 88.6789 70.5732C89.4524 70.9138 90.1998 70.4771 90.6249 70.052L117.213 43.4643C117.599 43.0783 117.593 42.5374 117.501 42.1477C117.406 41.7422 117.184 41.3359 116.909 41.0607C116.634 40.7854 116.228 40.564 115.822 40.4684C115.432 40.3765 114.892 40.3711 114.505 40.7572Z" fill="#242424" stroke="#242424" stroke-linejoin="round"></path>
<path d="M78.0898 1.83092C78.0132 1.78701 77.9342 1.7471 77.8531 1.71143C77.0799 1.37128 76.3329 1.80678 75.9074 2.23223L49.2401 28.8996C48.8705 29.2692 48.8733 29.7817 48.9641 30.15C49.0579 30.5303 49.2762 30.9114 49.56 31.164C49.7936 31.3718 50.1022 31.5177 50.4204 31.5571C50.7424 31.5969 51.1223 31.5298 51.4119 31.2402L78.114 4.53817C78.4667 4.18541 78.7236 3.70242 78.7733 3.21173C78.8253 2.69845 78.6438 2.14847 78.0898 1.83092Z" fill="#242424" stroke="#242424" stroke-linejoin="round"></path>
<path d="M72.0174 1.5H69.5033C68.8403 1.5 68.2044 1.76339 67.7356 2.23223L43.4513 26.5165C41.8764 28.0914 42.9918 30.7843 45.219 30.7843H47.7331C48.3962 30.7843 49.0321 30.5209 49.5009 30.052L73.7852 5.76777C75.3601 4.19286 74.2447 1.5 72.0174 1.5Z" fill="#242424" stroke="#242424" stroke-linejoin="round"></path>
<path d="M88.1423 25.1174L80.2975 5.84815C79.6232 4.19193 77.4787 3.75858 76.2143 5.02304L50.9993 30.2381C50.2882 30.9492 50.0724 32.0171 50.4516 32.9485L58.2963 52.2178C58.9706 53.874 61.1151 54.3073 62.3796 53.0429L87.5946 27.8279C88.3057 27.1168 88.5215 26.0488 88.1423 25.1174Z" fill="#242424" stroke="#242424" stroke-linejoin="round"></path>
<path d="M67.3584 2.046L39.075 30.3294C39.0749 30.3295 39.0748 30.3296 39.0747 30.3297L39.0746 30.3298C38.8793 30.525 38.8793 30.8416 39.0745 31.0369C39.2698 31.2321 39.5863 31.2322 39.7816 31.037C39.8179 31.0007 39.8573 30.9677 39.8993 30.9384C40.0424 30.8388 40.1967 30.7613 40.3865 30.6659C40.437 30.6406 40.4899 30.614 40.5459 30.5854C40.7911 30.46 41.0843 30.299 41.3312 30.052L68.2723 3.11092C68.514 2.86929 68.6593 2.46726 68.4579 2.11864C68.3483 1.92901 68.1414 1.79188 67.8887 1.79833C67.6602 1.80416 67.4801 1.92425 67.3585 2.04593C67.3584 2.04595 67.3584 2.04598 67.3584 2.046ZM68.0692 2.74958C68.0692 2.74961 68.0687 2.7501 68.0677 2.75096C68.0687 2.74998 68.0692 2.74955 68.0692 2.74958Z" fill="#242424" stroke="#242424" stroke-linejoin="round"></path>
<path d="M91.798 27.56L91.798 27.56C91.8776 27.4804 91.9668 27.3563 91.9901 27.1892C92.0156 27.0062 91.9528 26.7986 91.7765 26.6644C91.4438 26.411 91.0925 26.6211 90.9602 26.7534L91.0753 26.8685L90.9602 26.7534L63.5335 54.1801C63.331 54.3826 63.1742 54.6267 63.0524 54.8162C63.0327 54.8469 63.0139 54.8761 62.996 54.9035C62.9392 54.9903 62.8757 55.068 62.807 55.1368C62.8068 55.1369 62.8067 55.1371 62.8066 55.1372C62.8066 55.1372 62.8066 55.1372 62.8066 55.1372C62.6113 55.3325 62.6114 55.6491 62.8066 55.8443C63.0019 56.0396 63.3185 56.0396 63.5137 55.8443L63.5138 55.8443L91.798 27.56Z" fill="#242424" stroke="#242424" stroke-linejoin="round"></path>
<path d="M68.0642 2.04583C68.2595 2.24105 68.2595 2.55761 68.0643 2.7529C68.0643 2.75292 68.0643 2.75294 68.0642 2.75297C68.0641 2.7531 68.064 2.75323 68.0638 2.75336M68.0642 2.04583L39.78 31.0372L39.8555 30.9617L66.7971 4.02016L67.9545 2.86275L68.0638 2.75336M68.0642 2.04583C67.8689 1.8506 67.5524 1.85061 67.3571 2.04586L67.3571 2.04593L39.0729 30.3301L39.0728 30.3302C38.9511 30.4519 38.8311 30.6321 38.8254 30.8606C38.8191 31.1132 38.9562 31.32 39.1458 31.4295C39.4943 31.6309 39.8963 31.4856 40.1379 31.244L67.0794 4.30249C67.3263 4.05557 67.4873 3.76239 67.6128 3.51713C67.6414 3.46122 67.668 3.40826 67.6933 3.35782C67.7886 3.16798 67.8661 3.01366 67.9658 2.87063C67.995 2.82872 68.0278 2.78947 68.0638 2.75336M68.0642 2.04583L68.0638 2.75336M39.7767 31.0408C39.7767 31.0408 39.7771 31.0402 39.7781 31.0392C39.7772 31.0402 39.7767 31.0408 39.7767 31.0408Z" fill="#242424" stroke="#242424" stroke-linejoin="round"></path>
<path d="M38.7606 31.2072L39.1141 31.5607L38.7606 31.2072C38.6177 31.3501 38.5124 31.5663 38.5349 31.8154C38.5648 32.1453 38.7956 32.3771 39.0723 32.4453C39.3303 32.509 39.6076 32.43 39.8016 32.236L67.6911 4.34648C67.8949 4.14269 67.9295 3.85882 67.8553 3.6343C67.7736 3.38742 67.5758 3.22592 67.3772 3.15819C67.175 3.08927 66.8766 3.09116 66.6501 3.31771L38.7606 31.2072Z" fill="#242424" stroke="#242424" stroke-linejoin="round"></path>
<path d="M91.0905 26.8532C91.2858 26.658 91.6024 26.658 91.7976 26.8533C91.9928 27.0486 91.9928 27.3651 91.7976 27.5604L91.7975 27.5604L63.5137 55.8443C63.5137 55.8443 63.5137 55.8443 63.5137 55.8443C62.706 56.6521 61.4497 56.777 60.5026 56.2391C59.9442 55.922 59.7656 55.3681 59.8194 54.8547C59.8709 54.3637 60.1291 53.8797 60.4817 53.5271L85.6967 28.3121C86.3486 27.6602 87.3454 27.5244 88.1885 27.461C88.3958 27.4454 88.6051 27.4339 88.8074 27.4228L88.8453 27.4208C89.0614 27.4089 89.2694 27.3972 89.4707 27.3808C89.8776 27.3479 90.2262 27.2981 90.5101 27.2063C90.7254 27.1367 90.9244 27.019 91.0895 26.8542L91.0905 26.8533M91.0905 26.8532L91.444 27.2068L91.444 27.2068L91.0905 26.8533M91.0905 26.8532C91.0905 26.8532 91.0905 26.8533 91.0905 26.8533M91.0905 26.8532L91.0905 26.8533M90.1381 27.8057C89.7344 27.8727 89.2877 27.8972 88.8361 27.922C87.7698 27.9805 86.6753 28.0406 86.0503 28.6657L60.8352 53.8807C60.2664 54.4496 60.0499 55.407 60.7495 55.8043C61.5104 56.2365 62.5191 56.1319 63.1601 55.4907L90.3813 28.2695C90.5307 28.2398 90.6771 28.2033 90.8178 28.1578L90.1381 27.8057Z" fill="#242424" stroke="#242424" stroke-linejoin="round"></path>
<path d="M65.3974 2.9934C65.1457 2.42172 64.6868 1.96275 64.1151 1.71106C63.3416 1.37052 62.5943 1.80712 62.1691 2.23223L35.5814 28.82C35.1954 29.206 35.2007 29.7469 35.2926 30.1366C35.3883 30.542 35.6096 30.9484 35.8849 31.2236C36.1601 31.4989 36.5664 31.7202 36.9719 31.8159C37.3616 31.9078 37.9025 31.9131 38.2885 31.5271L64.8763 4.93934C65.3014 4.51423 65.738 3.76686 65.3974 2.9934Z" fill="#242424" stroke="#242424" stroke-linejoin="round"></path>
<path d="M40.3943 34.7506L64.9102 10.2347C65.3573 9.78756 65.6085 9.18114 65.6085 8.54881C65.6085 6.42474 63.0404 5.36099 61.5384 6.86294L37.0225 31.3789C36.5754 31.826 36.3242 32.4324 36.3242 33.0647C36.3242 35.1888 38.8923 36.2525 40.3943 34.7506Z" fill="#242424" stroke="#242424" stroke-linejoin="round"></path>
<path d="M67.6874 69.3449C67.4922 69.5402 67.4922 69.8567 67.6875 70.052C67.8828 70.2472 68.1993 70.2472 68.3946 70.0519L68.3947 70.0518C68.3947 70.0518 68.3948 70.0517 68.3949 70.0516L96.6788 41.7677L96.6789 41.7676C96.7531 41.6934 96.839 41.5761 96.8644 41.4165C96.8921 41.242 96.8388 41.0313 96.6598 40.8924C96.4952 40.7646 96.3068 40.7614 96.1776 40.7924C96.0445 40.8243 95.9383 40.8965 95.8605 40.9742L68.3761 68.4587L68.4749 68.5574L68.3761 68.4587C68.1909 68.6439 68.042 68.8666 67.9266 69.0391C67.9047 69.0719 67.8839 69.1029 67.8644 69.1315C67.8118 69.2084 67.7525 69.2798 67.6874 69.3449Z" fill="#242424" stroke="#242424" stroke-linejoin="round"></path>
<path d="M35.8848 39.3809C35.6895 39.1857 35.6894 38.8691 35.8847 38.6738C35.8847 38.6738 35.8847 38.6738 35.8847 38.6737C35.885 38.6735 35.8852 38.6732 35.8855 38.673M35.8848 39.3809L36.2383 39.0273L36.5919 39.3808M35.8848 39.3809C36.08 39.5761 36.3966 39.5761 36.5918 39.3808L36.5919 39.3808M35.8848 39.3809L36.5919 39.3808M35.8855 38.673L36.2975 38.261L37.0728 37.4857C37.1658 37.319 37.274 37.1632 37.4096 37.0276L63.9975 10.4397C64.4073 10.0298 64.9323 10.3331 64.5226 10.743L37.4778 37.7878C37.4593 37.823 37.441 37.8596 37.4228 37.8976C37.3561 38.0368 37.3047 38.1618 37.2484 38.2987C37.2081 38.3965 37.1654 38.5004 37.1128 38.6199C36.9869 38.9059 36.8092 39.1634 36.5919 39.3808M35.8855 38.673C36.016 38.5422 36.1224 38.3877 36.1975 38.217C36.2294 38.1446 36.2655 38.0575 36.3042 37.9643C36.3719 37.8011 36.4473 37.6193 36.5209 37.4656C36.6476 37.201 36.8119 36.9181 37.056 36.674L63.6439 10.0861C63.9508 9.77926 64.4271 9.62548 64.8175 9.851C65.0279 9.97259 65.1778 10.1996 65.1708 10.4776C65.1645 10.7315 65.0304 10.9422 64.8762 11.0965L64.8761 11.0966L36.5919 39.3808M35.8855 38.673L36.5919 39.3808" fill="#242424" stroke="#242424" stroke-linejoin="round"></path>
<path d="M95.972 41.0611C96.1672 40.8659 96.4838 40.866 96.679 41.0612C96.8742 41.2565 96.8742 41.573 96.679 41.7683L96.6789 41.7684L68.3955 70.0518C68.3954 70.0518 68.3954 70.0519 68.3954 70.0519C68.2411 70.2062 68.0304 70.3403 67.7766 70.3469C67.4986 70.354 67.2714 70.2043 67.1497 69.9938C66.9239 69.6033 67.0778 69.1267 67.3847 68.8198L93.9719 42.2327C94.2159 41.9887 94.4986 41.8242 94.7632 41.6974C94.918 41.6231 95.1003 41.5475 95.2639 41.4796C95.3563 41.4413 95.4427 41.4054 95.5149 41.3737L95.559 41.474L95.559 41.474L95.5149 41.3737C95.6847 41.2989 95.8395 41.1932 95.9711 41.062L95.9719 41.0612M95.972 41.0611L96.3254 41.4147L95.9719 41.0612M95.972 41.0611C95.9719 41.0611 95.9719 41.0612 95.9719 41.0612M95.972 41.0611L95.9719 41.0612M95.0863 42.6538L68.0418 69.6983L95.0863 42.6538Z" fill="#242424" stroke="#242424" stroke-linejoin="round"></path>
<path d="M83.356 39.3492L69.054 6.40333C68.3517 4.78551 66.2401 4.38396 64.993 5.63107L39.7494 30.8747C39.0235 31.6005 38.8151 32.6963 39.2239 33.638L53.5259 66.5838C54.2282 68.2016 56.3398 68.6032 57.5869 67.3561L82.8305 42.1124C83.5564 41.3866 83.7648 40.2908 83.356 39.3492Z" fill="#242424" stroke="#242424" stroke-linejoin="round"></path>
<path d="M63.7121 10.703C63.6398 10.7348 63.5526 10.771 63.4594 10.8097C63.2962 10.8774 63.1144 10.9528 62.9608 11.0264C62.6961 11.1531 62.4133 11.3174 62.1691 11.5615L35.5818 38.1488C35.2749 38.4557 35.121 38.9322 35.3466 39.3226C35.4683 39.5331 35.6954 39.683 35.9735 39.6759C36.2274 39.6694 36.438 39.5353 36.5923 39.381C36.5923 39.381 36.5923 39.3809 36.5924 39.3809L64.8759 11.0974L64.876 11.0973C65.0712 10.9021 65.0712 10.5855 64.876 10.3902C64.6808 10.195 64.3642 10.1949 64.1689 10.3901C64.1689 10.3902 64.1689 10.3902 64.1688 10.3902C64.1686 10.3904 64.1684 10.3907 64.1682 10.3909M63.7121 10.703L63.7561 10.803L64.1682 10.3909M63.7121 10.703C63.8828 10.6278 64.0373 10.5215 64.1682 10.3909M63.7121 10.703L63.7561 10.803L64.1682 10.3909" fill="#242424" stroke="#242424" stroke-linejoin="round"></path>
<path d="M90.0836 41.5H86.1029C85.4399 41.5 84.804 41.7634 84.3352 42.2322L60.0509 66.5165C58.476 68.0914 59.5914 70.7843 61.8187 70.7843H65.7994C66.4624 70.7843 67.0983 70.5209 67.5671 70.052L91.8514 45.7678C93.4263 44.1929 92.3109 41.5 90.0836 41.5Z" fill="#242424" stroke="#242424" stroke-linejoin="round"></path>
<path d="M58.2795 1.5H32.1127C31.4497 1.5 30.8138 1.76339 30.3449 2.23223L6.06066 26.5165C4.48575 28.0914 5.60116 30.7843 7.82842 30.7843H33.9952C34.6583 30.7843 35.2941 30.5209 35.763 30.052L60.0473 5.76777C61.6222 4.19286 60.5068 1.5 58.2795 1.5Z" fill="#242424" stroke="#242424" stroke-linejoin="round"></path>
<path d="M64.1963 18.3596C63.9446 17.7879 63.4856 17.329 62.9139 17.0773C62.1405 16.7367 61.3931 17.1733 60.968 17.5984L34.3803 44.1862C33.9942 44.5722 33.9996 45.1131 34.0915 45.5028C34.1871 45.9083 34.4084 46.3146 34.6837 46.5898L35.0373 46.2363L34.6837 46.5898C34.959 46.8651 35.3653 47.0864 35.7708 47.1821C36.1605 47.274 36.7013 47.2793 37.0874 46.8933L63.6751 20.3056C64.1002 19.8804 64.5368 19.1331 64.1963 18.3596Z" fill="#242424" stroke="#242424" stroke-linejoin="round"></path>
<path d="M84.2839 41.1281L83.9543 41.504L84.2839 41.1281C84.0527 40.9253 83.7491 40.7845 83.436 40.7483C83.1189 40.7117 82.7474 40.781 82.4636 41.0647L55.763 67.7653C55.4024 68.1259 55.1446 68.6216 55.1014 69.1206C55.056 69.6438 55.2545 70.1996 55.8326 70.5013C55.8818 70.5269 55.9318 70.5509 55.9826 70.5733C56.7557 70.9134 57.5028 70.478 57.9282 70.0525L84.6059 43.3748C84.9735 43.0072 84.9708 42.4982 84.8801 42.1327C84.7865 41.7555 84.5685 41.3776 84.2839 41.1281Z" fill="#242424" stroke="#242424" stroke-linejoin="round"></path>
<path d="M39.1195 50.0685L63.7216 25.4663C64.1607 25.0273 64.4073 24.4318 64.4073 23.8109C64.4073 21.7253 61.8857 20.6808 60.4109 22.1556L35.8087 46.7577C35.3697 47.1967 35.123 47.7922 35.123 48.4131C35.123 50.4987 37.6447 51.5432 39.1195 50.0685Z" fill="#242424" stroke="#242424" stroke-linejoin="round"></path>
<path d="M58.2812 10.8291H42.7533C42.0903 10.8291 41.4544 11.0925 40.9856 11.5613L16.7013 35.8456C15.1264 37.4205 16.2418 40.1134 18.4691 40.1134H33.9969C34.66 40.1134 35.2959 39.85 35.7647 39.3811L60.049 15.0969C61.6239 13.522 60.5085 10.8291 58.2812 10.8291Z" fill="#242424" stroke="#242424" stroke-linejoin="round"></path>
<path d="M34.6836 54.625C34.4883 54.4298 34.4883 54.1132 34.6835 53.918C34.6835 53.9179 34.6835 53.9179 34.6836 53.9179C34.6838 53.9177 34.684 53.9175 34.6842 53.9172M34.6836 54.625L35.0371 54.2714C35.2112 54.0972 35.3534 53.8911 35.454 53.6626C35.4958 53.5675 35.5358 53.4707 35.5759 53.3737C35.6666 53.1544 35.7577 52.934 35.8716 52.7298L35.0963 53.5051M34.6836 54.625C34.8789 54.8202 35.1954 54.8202 35.3907 54.625L35.3907 54.6249M34.6836 54.625L35.3907 54.6249M34.6842 53.9172L35.0963 53.5051M34.6842 53.9172C34.8148 53.7864 34.9212 53.6319 34.9964 53.4611C35.0282 53.3888 35.0643 53.3016 35.103 53.2084C35.1707 53.0452 35.2461 52.8634 35.3197 52.7098C35.4464 52.4452 35.6107 52.1623 35.8548 51.9182L62.4428 25.3302C62.7496 25.0234 63.226 24.8696 63.6163 25.0951C63.8268 25.2167 63.9766 25.4438 63.9697 25.7217C63.9633 25.9756 63.8293 26.1863 63.675 26.3406L63.6749 26.3407L35.3907 54.6249M34.6842 53.9172L35.3907 54.6249M35.0963 53.5051V53.5051Z" fill="#242424" stroke="#242424" stroke-linejoin="round"></path>
<mask id="SvgjsMask1000" maskUnits="userSpaceOnUse" x="32.623" y="24.9873" width="32" height="31" fill="black">
<rect fill="white" x="32.623" y="24.9873" width="32" height="31"></rect>
<path d="M62.7124 26.4048C62.9409 26.3041 63.147 26.162 63.3212 25.9879L35.0376 54.2716C34.6276 54.6817 34.3242 54.1566 34.7342 53.7465L61.3215 27.1592C61.6966 26.7841 62.2269 26.6185 62.7124 26.4048Z"></path>
</mask>
<path d="M62.7124 26.4048C62.9409 26.3041 63.147 26.162 63.3212 25.9879L35.0376 54.2716C34.6276 54.6817 34.3242 54.1566 34.7342 53.7465L61.3215 27.1592C61.6966 26.7841 62.2269 26.6185 62.7124 26.4048Z" fill="#242424"></path>
<path d="M62.9682 25.6339C62.968 25.634 62.9678 25.6342 62.9676 25.6344L63.6748 26.3414C63.675 26.3412 63.6753 26.341 63.6755 26.3407L62.9682 25.6339ZM63.3212 25.9879L64.0283 26.695C64.4188 26.3045 64.4189 25.6714 64.0284 25.2809C63.638 24.8903 63.0048 24.8902 62.6143 25.2806L63.3212 25.9879ZM62.7124 26.4048L63.1153 27.32V27.32L62.7124 26.4048ZM61.3215 27.1592L62.0286 27.8663V27.8663L61.3215 27.1592ZM34.7342 53.7465L35.4413 54.4536H35.4413L34.7342 53.7465ZM35.0376 54.2716L34.3304 53.5645L34.3303 53.5646L35.0376 54.2716ZM62.6143 25.2806C62.5265 25.3684 62.4231 25.4395 62.3095 25.4895L63.1153 27.32C63.4587 27.1688 63.7676 26.9556 64.0282 26.6952L62.6143 25.2806ZM60.6144 26.4521L34.0271 53.0394L35.4413 54.4536L62.0286 27.8663L60.6144 26.4521ZM35.7447 54.9787L64.0283 26.695L62.6141 25.2808L34.3304 53.5645L35.7447 54.9787ZM34.0271 53.0394C33.6183 53.4482 33.3372 54.1673 33.7125 54.8169C33.9179 55.1723 34.3087 55.4321 34.7851 55.4199C35.2132 55.409 35.5387 55.1847 35.7448 54.9785L34.3303 53.5646C34.3314 53.5635 34.4653 53.4274 34.734 53.4205C35.051 53.4125 35.3147 53.5922 35.4442 53.8163C35.5576 54.0125 35.5469 54.1893 35.5262 54.2806C35.5029 54.3831 35.4576 54.4373 35.4413 54.4536L34.0271 53.0394ZM62.3095 25.4895C62.1543 25.5578 61.7864 25.7033 61.5436 25.8196C61.2545 25.958 60.9151 26.1514 60.6144 26.4521L62.0286 27.8663C62.103 27.7919 62.2163 27.7149 62.4075 27.6234C62.645 27.5096 62.7849 27.4654 63.1153 27.32L62.3095 25.4895Z" fill="#242424" mask="url(#path-65-outside-1_60_3295)"></path>
<path d="M57.0791 16.8662H42.7533C42.0903 16.8662 41.4544 17.1296 40.9856 17.5984L16.7013 41.8827C15.1264 43.4576 16.2418 46.1505 18.4691 46.1505H32.7948C33.4578 46.1505 34.0937 45.8871 34.5626 45.4183L58.8468 21.134C60.4218 19.5591 59.3063 16.8662 57.0791 16.8662Z" fill="#242424" stroke="#242424" stroke-linejoin="round"></path>
<path d="M65.3974 33.6643C65.1457 33.0926 64.6868 32.6337 64.1151 32.382C63.3416 32.0414 62.5943 32.478 62.1692 32.9031L35.5814 59.4909C35.1954 59.8769 35.2007 60.4178 35.2926 60.8075C35.3883 61.2129 35.6096 61.6193 35.8849 61.8945C36.1601 62.1698 36.5664 62.3911 36.9719 62.4868C37.3616 62.5787 37.9025 62.584 38.2885 62.198L64.8763 35.6102C65.3014 35.1851 65.738 34.4378 65.3974 33.6643Z" fill="#242424" stroke="#242424" stroke-linejoin="round"></path>
<path d="M11.873 39.8453C11.6778 40.0406 11.6777 40.3571 11.873 40.5524C12.0682 40.7476 12.3848 40.7477 12.58 40.5525C12.5801 40.5525 12.5801 40.5524 12.5801 40.5524C12.5803 40.5522 12.5805 40.552 12.5807 40.5518C12.7115 40.4212 12.8661 40.3148 13.0369 40.2396C13.1092 40.2078 13.1964 40.1716 13.2896 40.133C13.4528 40.0653 13.6346 39.9898 13.7882 39.9163C14.0528 39.7895 14.3357 39.6253 14.5798 39.3811L41.1677 12.7932C41.4746 12.4864 41.6284 12.01 41.4029 11.6197C41.2813 11.4092 41.0542 11.2593 40.7763 11.2663C40.5224 11.2727 40.3117 11.4067 40.1574 11.561L40.1573 11.561L11.8731 39.8452L11.873 39.8453Z" fill="#242424" stroke="#242424" stroke-linejoin="round"></path>
<path d="M30.1355 1.9376C29.8815 1.94409 29.6709 2.07825 29.5166 2.2326L1.23306 30.5161L1.23298 30.5162C1.03773 30.7115 1.03772 31.028 1.23294 31.2233C1.42817 31.4185 1.74473 31.4186 1.94001 31.2234C1.94004 31.2234 1.94006 31.2233 1.94009 31.2233C2.07105 31.0924 2.22579 30.9858 2.39686 30.9105C2.46919 30.8787 2.55633 30.8425 2.64955 30.8039C2.81272 30.7362 2.99453 30.6607 3.14819 30.5872C3.41279 30.4604 3.69567 30.2962 3.93979 30.052L30.5271 3.4647C30.834 3.15779 30.9879 2.68132 30.7623 2.2909C30.6407 2.08038 30.4135 1.93051 30.1355 1.9376Z" fill="#242424" stroke="#242424" stroke-linejoin="round"></path>
<path d="M40.3943 65.4215L64.9102 40.9056C65.3573 40.4585 65.6085 39.852 65.6085 39.2197C65.6085 37.0956 63.0404 36.0319 61.5384 37.5338L37.0225 62.0498C36.5754 62.4969 36.3242 63.1033 36.3242 63.7356C36.3242 65.8597 38.8923 66.9234 40.3943 65.4215Z" fill="#242424" stroke="#242424" stroke-linejoin="round"></path>
<path d="M40.864 12.2691C41.0592 12.0738 41.0592 11.7573 40.8639 11.562C40.6686 11.3668 40.3521 11.3668 40.1568 11.5621L40.1568 11.5622L11.8732 39.8457C11.7189 40 11.5847 40.2106 11.5782 40.4646C11.5711 40.7426 11.721 40.9698 11.9315 41.0914C12.3219 41.317 12.7984 41.1631 13.1053 40.8562L39.6927 14.2689C39.9368 14.0248 40.1011 13.7419 40.2278 13.4773C40.3014 13.3236 40.3768 13.1418 40.4445 12.9787C40.4832 12.8854 40.5193 12.7983 40.5511 12.726C40.6264 12.555 40.7331 12.4001 40.8639 12.2692C40.864 12.2691 40.8639 12.2692 40.864 12.2691Z" fill="#242424" stroke="#242424" stroke-linejoin="round"></path>
<path d="M30.2233 2.23235C30.4185 2.42757 30.4186 2.74413 30.2234 2.93942C30.2234 2.93944 30.2233 2.93947 30.2233 2.93949L30.2233 2.23235ZM30.2233 2.23235C30.028 2.03712 29.7115 2.03714 29.5162 2.23238L29.5161 2.23246L1.23194 30.5167L1.23186 30.5167C1.0776 30.6711 0.94357 30.8818 0.9372 31.1356C0.930225 31.4136 1.08011 31.6406 1.29056 31.7622C1.68091 31.9877 2.15727 31.834 2.46411 31.5271L29.052 4.93919C29.2962 4.69508 29.4604 4.41219 29.5872 4.14759C29.6607 3.99393 29.7362 3.81212 29.8039 3.64894C29.8425 3.55573 29.8787 3.46859 29.9105 3.39627C29.9857 3.22552 30.092 3.07105 30.2226 2.94024L30.2233 2.23235Z" fill="#242424" stroke="#242424" stroke-linejoin="round"></path>
<path d="M11.498 41.0489L11.8495 41.4004L11.498 41.0489C11.2692 41.2777 11.1406 41.588 11.1406 41.9116C11.1406 42.9986 12.4548 43.5429 13.2234 42.7743L40.0676 15.9301C40.2964 15.7013 40.4249 15.391 40.4249 15.0674C40.4249 13.9805 39.1107 13.4361 38.3422 14.2047L11.498 41.0489Z" fill="#242424" stroke="#242424" stroke-linejoin="round"></path>
<path d="M57.0791 26.0732H42.7533C42.0903 26.0732 41.4544 26.3366 40.9856 26.8055L16.7013 51.0897C15.1264 52.6647 16.2418 55.3575 18.4691 55.3575H32.7948C33.4578 55.3575 34.0937 55.0941 34.5626 54.6253L58.8468 30.341C60.4218 28.7661 59.3063 26.0732 57.0791 26.0732Z" fill="#242424" stroke="#242424" stroke-linejoin="round"></path>
<path d="M14.58 45.4182L41.1677 18.8305C41.5538 18.4445 41.5484 17.9036 41.4565 17.5139C41.3608 17.1084 41.1395 16.7021 40.8642 16.4269C40.589 16.1516 40.1827 15.9303 39.7772 15.8346C39.3875 15.7427 38.8466 15.7374 38.4606 16.1234L11.8729 42.7111C11.4477 43.1362 11.0111 43.8836 11.3517 44.6571C11.6034 45.2288 12.0623 45.6877 12.634 45.9394C13.4075 46.28 14.1549 45.8434 14.58 45.4182Z" fill="#242424" stroke="#242424" stroke-linejoin="round"></path>
<path d="M35.8847 69.3447C35.6894 69.54 35.6895 69.8566 35.8848 70.0518C36.08 70.247 36.3966 70.247 36.5918 70.0517L36.5919 70.0517C36.5921 70.0515 36.5923 70.0513 36.5925 70.0511L64.8761 41.7675L64.8762 41.7674C65.0304 41.6131 65.1645 41.4024 65.1708 41.1485C65.1778 40.8705 65.0279 40.6435 64.8175 40.5219C64.4271 40.2964 63.9508 40.4502 63.6439 40.757L37.056 67.3449C36.8119 67.589 36.6476 67.8719 36.5209 68.1365C36.4473 68.2902 36.3719 68.472 36.3042 68.6352C36.2655 68.7284 36.2294 68.8155 36.1975 68.8879C36.1222 69.059 36.0156 69.2137 35.8847 69.3447Z" fill="#242424" stroke="#242424" stroke-linejoin="round"></path>
<path d="M64.1689 41.061C64.3642 40.8658 64.6808 40.8659 64.876 41.0611C65.0712 41.2564 65.0712 41.573 64.876 41.7682L64.8759 41.7683L36.5924 70.0518C36.5923 70.0518 36.5923 70.0519 36.5923 70.0519C36.438 70.2062 36.2274 70.3403 35.9735 70.3468C35.6954 70.3539 35.4683 70.204 35.3466 69.9935C35.121 69.6031 35.2749 69.1266 35.5818 68.8197L62.1691 42.2324C62.4133 41.9883 62.6961 41.824 62.9608 41.6973C63.1144 41.6237 63.2962 41.5482 63.4594 41.4806C63.5526 41.4419 63.6398 41.4057 63.7121 41.3739C63.8828 41.2987 64.0373 41.1924 64.1681 41.0619L64.1689 41.061ZM64.1689 41.061C64.1689 41.0611 64.1689 41.0611 64.1688 41.0611L64.1689 41.061Z" fill="#242424" stroke="#242424" stroke-linejoin="round"></path>
<path d="M58.2812 32.1709H42.7533C42.0903 32.1709 41.4544 32.4343 40.9856 32.9031L16.7013 57.1874C15.1264 58.7623 16.2418 61.4552 18.4691 61.4552H33.9969C34.66 61.4552 35.2959 61.1918 35.7647 60.7229L60.049 36.4387C61.6239 34.8638 60.5085 32.1709 58.2812 32.1709Z" fill="#242424" stroke="#242424" stroke-linejoin="round"></path>
<path d="M11.873 55.0894C11.6778 55.2847 11.6777 55.6013 11.873 55.7965C12.0682 55.9918 12.3848 55.9918 12.58 55.7966C12.5801 55.7966 12.5801 55.7966 12.5801 55.7966C12.5803 55.7964 12.5805 55.7962 12.5807 55.796C12.7115 55.6654 12.8661 55.559 13.0369 55.4838C13.1092 55.4519 13.1964 55.4158 13.2896 55.3771C13.4528 55.3094 13.6346 55.234 13.7882 55.1604C14.0528 55.0337 14.3357 54.8694 14.5798 54.6253L41.1677 28.0373C41.4746 27.7305 41.6284 27.2542 41.4029 26.8638C41.2813 26.6533 41.0542 26.5035 40.7763 26.5104C40.5224 26.5168 40.3117 26.6508 40.1574 26.8051L40.1573 26.8052L11.8731 55.0894L11.873 55.0894Z" fill="#242424" stroke="#242424" stroke-linejoin="round"></path>
<path d="M40.864 27.5123C41.0592 27.317 41.0592 27.0004 40.8639 26.8052C40.6686 26.61 40.3521 26.61 40.1568 26.8052L40.1568 26.8053L11.8732 55.0888C11.7189 55.2431 11.5847 55.4538 11.5782 55.7077C11.5711 55.9858 11.721 56.2129 11.9315 56.3346C12.3219 56.5602 12.7984 56.4063 13.1053 56.0994L39.6927 29.5121C39.9368 29.2679 40.1011 28.9851 40.2278 28.7205C40.3014 28.5668 40.3768 28.385 40.4445 28.2218C40.4832 28.1286 40.5193 28.0415 40.5511 27.9691C40.6264 27.7981 40.7331 27.6433 40.8639 27.5124C40.864 27.5123 40.8639 27.5124 40.864 27.5123Z" fill="#242424" stroke="#242424" stroke-linejoin="round"></path>
<path d="M13.2602 58.0426L40.0612 31.2416C40.2941 31.0087 40.4249 30.6929 40.4249 30.3636C40.4249 29.2575 39.0875 28.7035 38.3054 29.4857L11.5043 56.2868C11.2714 56.5196 11.1406 56.8354 11.1406 57.1647C11.1406 58.2708 12.478 58.8248 13.2602 58.0426Z" fill="#242424" stroke="#242424" stroke-linejoin="round"></path>
<path d="M14.58 60.7229L41.1677 34.1352C41.5538 33.7492 41.5484 33.2083 41.4565 32.8186C41.3608 32.4131 41.1395 32.0068 40.8642 31.7316C40.589 31.4563 40.1827 31.2349 39.7772 31.1393C39.3875 31.0474 38.8466 31.042 38.4606 31.4281L11.8729 58.0158C11.4477 58.4409 11.0111 59.1883 11.3517 59.9618C11.6034 60.5335 12.0623 60.9924 12.634 61.2441C13.4075 61.5847 14.1549 61.148 14.58 60.7229Z" fill="#242424" stroke="#242424" stroke-linejoin="round"></path>
<path d="M29.7843 39.1716V8.82843C29.7843 6.60116 27.0914 5.48575 25.5165 7.06066L1.23223 31.3449C0.763391 31.8138 0.5 32.4497 0.5 33.1127V63.4558C0.5 65.6831 3.19286 66.7985 4.76777 65.2236L29.052 40.9393C29.5209 40.4705 29.7843 39.8346 29.7843 39.1716Z" fill="#242424" stroke="#242424" stroke-linejoin="round"></path>
<path d="M58.2795 41.5H32.1127C31.4497 41.5 30.8138 41.7634 30.3449 42.2322L6.06066 66.5165C4.48575 68.0914 5.60117 70.7843 7.82843 70.7843H33.9952C34.6583 70.7843 35.2941 70.5209 35.763 70.052L60.0473 45.7678C61.6222 44.1929 60.5068 41.5 58.2795 41.5Z" fill="#242424" stroke="#242424" stroke-linejoin="round"></path>
<path d="M27.82 40.7572L1.23223 67.3449C0.807124 67.77 0.37052 68.5174 0.711056 69.2909C0.962753 69.8626 1.42172 70.3215 1.9934 70.5732C2.76686 70.9137 3.51423 70.4771 3.93934 70.052L30.5271 43.4643C30.9131 43.0783 30.9078 42.5374 30.8159 42.1477C30.7202 41.7422 30.4989 41.3359 30.2236 41.0607C29.9484 40.7854 29.542 40.564 29.1366 40.4684C28.7469 40.3765 28.206 40.3711 27.82 40.7572Z" fill="#242424" stroke="#242424" stroke-linejoin="round"></path>
<path d="M66.1088 4C66.1088 2.34315 64.7657 1 63.1088 1H31.2852C29.6283 1 28.2852 2.34315 28.2852 4V40C28.2852 41.6569 29.6283 43 31.2852 43H63.1088C64.7657 43 66.1088 41.6568 66.1088 40V34.6707C66.1088 33.0139 64.7657 31.6707 63.1088 31.6707H41.9241C41.3718 31.6707 40.9241 31.223 40.9241 30.6707V28.5732C40.9241 28.0209 41.3718 27.5732 41.9241 27.5732H61.9067C63.5635 27.5732 64.9067 26.23 64.9067 24.5732V19.3659C64.9067 17.709 63.5635 16.3659 61.9067 16.3659H41.9241C41.3718 16.3659 40.9241 15.9181 40.9241 15.3659V13.3293C40.9241 12.777 41.3718 12.3293 41.9241 12.3293H63.1088C64.7657 12.3293 66.1088 10.9861 66.1088 9.32927V4ZM113.873 3.36322C113.873 2.05804 112.815 1 111.51 1H103.219C101.999 1 100.9 1.73884 100.44 2.86881L90.9586 26.1583C90.6205 26.9889 89.4444 26.9889 89.1063 26.1583L79.6248 2.86881C79.1648 1.73884 78.0663 1 76.8463 1H68.6753C67.3701 1 66.3121 2.05805 66.3121 3.36322C66.3121 3.68698 66.3786 4.00728 66.5075 4.30426L82.5219 41.1946C82.9977 42.2908 84.0788 43 85.2738 43H94.9113C96.1064 43 97.1874 42.2908 97.6632 41.1946L113.678 4.30427C113.807 4.00729 113.873 3.68698 113.873 3.36322ZM167.285 43C168.942 43 170.285 41.6569 170.285 40V4C170.285 2.34315 168.942 1 167.285 1H156.168C154.976 1 153.897 1.70621 153.419 2.79889L143.565 25.3524C143.217 26.1503 142.085 26.1523 141.734 25.3557L131.777 2.78898C131.297 1.70162 130.221 1 129.032 1H117.97C116.314 1 114.97 2.34315 114.97 4V40C114.97 41.6569 116.314 43 117.97 43H124.489C126.146 43 127.489 41.6569 127.489 40V26.687C127.489 25.6037 128.971 25.2938 129.405 26.2864L135.928 41.202C136.406 42.2942 137.485 43 138.677 43H146.579C147.771 43 148.85 42.2945 149.328 41.2026L155.91 26.1588C156.345 25.1664 157.827 25.4764 157.827 26.5597V40C157.827 41.6569 159.17 43 160.827 43H167.285Z" fill="white" stroke="#242424" stroke-width="2"></path>
</svg><style>@media (prefers-color-scheme: light) { :root { filter: none; } }
</style></svg>